<svg width="268" height="50" viewBox="0 0 268 50" fill="none" xmlns="http://www.w3.org/2000/svg">
<g clip-path="url(#clip0_8683_1945)">
<path d="M222.245 14.3164V7.158H215.26V0H194.069V7.158H187.085V14.3164H179.941V21.4744V35.5692H187.085V42.7272H194.069V49.8856H215.26V42.7272H222.245V35.5692H229.388V21.4744V14.3164H222.245Z" fill="#00BBB4"/>
<path d="M215.214 21.2133V14.0797H208.636V7.1582H201.243V14.0797H193.922V21.2133H186.715V28.4205H193.922V35.3721H201.243V42.3703H208.636V35.3721H215.214V28.4205H222.422V21.2133H215.214Z" fill="#0E3DD1"/>
<path d="M208.216 21.1172H200.922V28.4115H208.216V21.1172Z" fill="#54C8E8"/>
<path d="M227.723 42.0665V5.7168H243.993L252.865 22.1608H254.12V5.7168H267.967V42.0665H252.086L242.869 25.6225H241.57V42.0665H227.723H227.723Z" fill="#2055FD"/>
<path d="M161.839 43.2769C149.29 43.2769 141.068 35.6607 141.068 23.8904C141.068 12.0765 149.29 4.50391 161.839 4.50391C171.316 4.50391 181.009 8.61491 181.832 21.9862H168.331C167.682 18.438 165.388 16.7503 161.839 16.7503C158.204 16.7503 155.219 19.39 155.219 23.8904C155.219 28.3908 158.204 31.0306 161.839 31.0306C165.388 31.0306 167.681 29.2997 168.331 25.6648H181.832C181.009 39.1228 171.403 43.2769 161.839 43.2769Z" fill="#2055FD"/>
<path d="M105.406 42.0665V5.7168H139.592V17.0111H119.643V19.4344H138.813V28.392H119.643V30.7722H139.592V42.0665H105.406Z" fill="#2055FD"/>
<path d="M97.9662 23.545V22.7662C100.173 21.3812 102.424 19.8669 102.424 15.583C102.424 10.9092 99.6974 5.7168 88.3165 5.7168H63.8242V42.0665H87.3648C99.1783 42.0665 103.246 37.523 103.246 31.8105C103.246 27.7862 101.212 25.4491 97.9662 23.5454V23.545ZM78.061 16.4915H86.6723C88.7059 16.4915 88.8356 17.8329 88.8356 18.3956C88.8356 18.785 88.7059 20.2131 86.6723 20.2131H78.061V16.4915ZM86.8021 31.2474H78.061V27.4826H86.8021C88.7925 27.4826 88.8792 28.9974 88.8792 29.3432C88.8792 29.6464 88.7925 31.2474 86.8021 31.2474Z" fill="#2055FD"/>
<path d="M46.9883 42.0665V5.7168H61.225V42.0665H46.9883Z" fill="#2055FD"/>
<path d="M12.8953 42.0665L0 5.7168H14.6697L22.1561 28.7383H23.5842L31.027 5.7168H45.6967L32.8009 42.0665H12.8953Z" fill="#2055FD"/>
</g>
<defs>
<clipPath id="clip0_8683_1945">
<rect width="267.967" height="49.8856" fill="white"/>
</clipPath>
</defs>
</svg>